<svg width="1280" height="832" viewBox="0 0 1280 832" fill="none" xmlns="http://www.w3.org/2000/svg">
<g clip-path="url(#clip0_1_2)">
<rect width="1280" height="832" fill="#E3E9F0"/>
<ellipse cx="640" cy="529" rx="492" ry="467" fill="#857DAA"/>
<ellipse cx="640" cy="936.5" rx="492" ry="297.5" fill="#C7C6CF"/>
<rect x="276" y="224" width="727" height="383" rx="15" fill="#D2E7FF" stroke="black" stroke-width="10"/>
<path d="M530 675H751L777 724H503L530 675Z" fill="black"/>
<rect x="621" y="612" width="38" height="80" fill="black"/>
<path d="M853.437 312.902C854.139 315.114 852.339 317.182 850.021 317.182H832.407C831.738 317.183 831.08 317.007 830.5 316.672C829.92 316.338 829.438 315.856 829.103 315.276L820.299 300.026C819.135 298.013 820.029 295.416 822.297 294.923C828.794 293.502 835.588 294.558 841.348 297.884C847.108 301.209 851.419 306.565 853.437 312.902ZM808.277 303.025C809.837 301.307 812.537 301.831 813.696 303.839L822.5 319.089C822.834 319.668 823.011 320.326 823.011 320.995C823.011 321.664 822.834 322.322 822.5 322.901L813.696 338.151C812.531 340.169 809.832 340.693 808.272 338.97C803.786 334.061 801.303 327.649 801.313 321C801.304 314.348 803.788 307.935 808.277 303.025ZM822.297 347.078C820.024 346.579 819.13 343.987 820.294 341.974L829.103 326.714C829.438 326.134 829.92 325.652 830.5 325.318C831.08 324.983 831.738 324.807 832.407 324.807H850.021C852.344 324.807 854.139 326.876 853.437 329.088C851.421 335.427 847.11 340.785 841.35 344.113C835.59 347.44 828.795 348.497 822.297 347.078Z" fill="white"/>
<path fill-rule="evenodd" clip-rule="evenodd" d="M873.75 324.812C874.761 324.812 875.731 324.411 876.446 323.696C877.161 322.981 877.562 322.011 877.562 321C877.562 319.989 877.161 319.019 876.446 318.304C875.731 317.589 874.761 317.187 873.75 317.187H869.77C869.562 314.858 869.159 312.551 868.565 310.289L872.296 308.932C872.767 308.761 873.199 308.499 873.568 308.16C873.938 307.822 874.237 307.414 874.448 306.961C874.66 306.507 874.78 306.016 874.802 305.515C874.824 305.015 874.747 304.515 874.576 304.045C874.405 303.574 874.143 303.142 873.804 302.772C873.466 302.403 873.058 302.104 872.604 301.892C872.151 301.681 871.659 301.56 871.159 301.538C870.659 301.517 870.159 301.593 869.688 301.765L865.952 303.127C864.956 301.013 863.784 298.986 862.45 297.068L865.5 294.511C865.892 294.192 866.216 293.798 866.455 293.352C866.693 292.906 866.841 292.418 866.889 291.915C866.936 291.411 866.884 290.904 866.734 290.421C866.583 289.938 866.339 289.491 866.014 289.103C865.689 288.716 865.29 288.397 864.841 288.166C864.392 287.934 863.901 287.794 863.397 287.753C862.894 287.713 862.387 287.773 861.906 287.931C861.426 288.088 860.982 288.339 860.599 288.67L857.549 291.232C855.891 289.587 854.099 288.082 852.192 286.733L854.179 283.287C854.433 282.853 854.599 282.373 854.668 281.875C854.736 281.377 854.705 280.87 854.576 280.384C854.448 279.898 854.224 279.442 853.919 279.043C853.613 278.643 853.232 278.308 852.796 278.057C852.361 277.805 851.88 277.643 851.382 277.578C850.883 277.513 850.376 277.548 849.891 277.679C849.406 277.811 848.952 278.037 848.554 278.345C848.157 278.654 847.824 279.037 847.576 279.474L845.593 282.911C843.47 281.931 841.268 281.131 839.01 280.521L839.702 276.607C839.855 275.621 839.616 274.614 839.035 273.802C838.455 272.99 837.579 272.439 836.596 272.266C835.613 272.092 834.601 272.312 833.778 272.877C832.955 273.441 832.386 274.306 832.194 275.286L831.502 279.2C829.173 279.007 826.832 279.007 824.503 279.2L823.811 275.286C823.733 274.785 823.556 274.304 823.29 273.873C823.024 273.441 822.675 273.067 822.263 272.772C821.85 272.477 821.383 272.267 820.889 272.155C820.394 272.042 819.883 272.03 819.383 272.118C818.884 272.206 818.407 272.392 817.981 272.667C817.555 272.941 817.187 273.298 816.901 273.716C816.614 274.134 816.413 274.605 816.311 275.101C816.208 275.598 816.206 276.11 816.303 276.607L816.995 280.521C814.717 281.136 812.521 281.945 810.417 282.911L808.434 279.474C808.184 279.04 807.851 278.66 807.453 278.355C807.056 278.05 806.602 277.826 806.119 277.696C805.635 277.566 805.13 277.533 804.633 277.598C804.137 277.664 803.658 277.826 803.224 278.076C802.79 278.327 802.41 278.66 802.104 279.057C801.799 279.455 801.576 279.908 801.446 280.392C801.316 280.876 801.283 281.381 801.348 281.877C801.413 282.374 801.576 282.853 801.826 283.287L803.819 286.733C801.911 288.082 800.119 289.586 798.461 291.232L795.411 288.67C794.636 288.019 793.635 287.703 792.627 287.791C791.62 287.879 790.688 288.363 790.038 289.138C789.387 289.912 789.071 290.913 789.159 291.921C789.246 292.929 789.731 293.86 790.505 294.511L793.555 297.068C792.221 298.986 791.049 301.013 790.053 303.127L786.317 301.765C785.366 301.419 784.317 301.465 783.401 301.892C782.484 302.32 781.775 303.094 781.429 304.045C781.083 304.995 781.129 306.044 781.557 306.961C781.984 307.877 782.758 308.586 783.709 308.932L787.445 310.289C786.85 312.549 786.445 314.855 786.235 317.182H782.255C781.244 317.182 780.274 317.584 779.559 318.299C778.844 319.014 778.443 319.984 778.443 320.995C778.443 322.006 778.844 322.976 779.559 323.691C780.274 324.406 781.244 324.807 782.255 324.807H786.235C786.449 327.166 786.855 329.469 787.445 331.7L783.709 333.063C782.758 333.409 781.984 334.118 781.557 335.034C781.129 335.951 781.083 337 781.429 337.95C781.775 338.901 782.484 339.675 783.401 340.103C784.317 340.53 785.366 340.576 786.317 340.23L790.053 338.868C791.054 340.988 792.229 343.016 793.56 344.922L790.51 347.484C789.744 348.136 789.266 349.064 789.181 350.067C789.097 351.069 789.411 352.065 790.057 352.836C790.703 353.607 791.628 354.092 792.63 354.185C793.632 354.277 794.629 353.97 795.406 353.33L798.461 350.763C800.118 352.405 801.912 353.915 803.819 355.262L801.826 358.718C801.32 359.595 801.184 360.636 801.446 361.613C801.708 362.59 802.347 363.423 803.224 363.929C804.1 364.434 805.141 364.571 806.119 364.309C807.096 364.047 807.929 363.407 808.434 362.531L810.417 359.079C812.521 360.055 814.722 360.858 816.995 361.473L816.303 365.388C816.141 366.377 816.375 367.391 816.955 368.209C817.535 369.027 818.415 369.584 819.402 369.759C820.39 369.933 821.406 369.711 822.232 369.142C823.057 368.572 823.624 367.7 823.811 366.714L824.508 362.79C826.835 362.983 829.175 362.983 831.502 362.79L832.194 366.714C832.272 367.215 832.449 367.696 832.715 368.127C832.981 368.559 833.33 368.933 833.743 369.228C834.155 369.523 834.622 369.733 835.116 369.845C835.611 369.958 836.122 369.97 836.622 369.882C837.121 369.794 837.598 369.608 838.024 369.333C838.45 369.059 838.818 368.702 839.105 368.284C839.391 367.866 839.592 367.395 839.694 366.899C839.797 366.402 839.8 365.89 839.702 365.393L839.01 361.473C841.266 360.863 843.467 360.064 845.588 359.084L847.576 362.526C848.081 363.402 848.914 364.042 849.892 364.304C850.869 364.566 851.91 364.429 852.786 363.924C853.663 363.418 854.302 362.585 854.564 361.608C854.827 360.631 854.69 359.59 854.184 358.713L852.186 355.262C854.094 353.913 855.886 352.408 857.544 350.763L860.599 353.325C861.375 353.975 862.376 354.29 863.384 354.201C864.392 354.113 865.323 353.627 865.972 352.852C866.622 352.077 866.938 351.075 866.849 350.068C866.76 349.06 866.275 348.129 865.5 347.479L862.45 344.922C863.776 343.016 864.951 340.988 865.957 338.868L869.693 340.225C870.164 340.396 870.664 340.473 871.164 340.45C871.664 340.428 872.155 340.308 872.609 340.096C873.062 339.884 873.47 339.585 873.808 339.215C874.146 338.846 874.408 338.413 874.579 337.943C874.749 337.472 874.826 336.972 874.804 336.472C874.782 335.972 874.661 335.481 874.449 335.027C874.237 334.574 873.938 334.166 873.569 333.828C873.199 333.49 872.767 333.229 872.296 333.058L868.565 331.7C869.15 329.469 869.556 327.166 869.77 324.807H873.755L873.75 324.812ZM860.244 309.257C858.86 305.449 856.812 301.915 854.194 298.821C851.584 295.741 848.452 293.143 844.943 291.146C839.78 288.209 833.94 286.672 828 286.687C825.912 286.685 823.827 286.873 821.773 287.247C817.925 287.953 814.228 289.316 810.844 291.278C803.941 295.276 798.638 301.544 795.838 309.013C795.788 309.184 795.727 309.35 795.655 309.512C794.349 313.201 793.686 317.087 793.693 321C793.686 327.016 795.264 332.929 798.268 338.142C801.271 343.355 805.595 347.685 810.803 350.697L810.849 350.722C814.279 352.709 818.029 354.081 821.93 354.779L822.042 354.794C826.025 355.492 830.099 355.485 834.08 354.774C838.029 354.07 841.824 352.674 845.288 350.651C848.682 348.665 851.711 346.114 854.245 343.107L854.291 343.057L854.337 343.006C856.943 339.888 858.974 336.332 860.335 332.504C861.621 328.91 862.318 325.036 862.318 321C862.317 316.996 861.615 313.024 860.244 309.263V309.257Z" fill="white"/>
<path d="M920.51 354.018C920.855 355.105 919.97 356.123 918.83 356.123H910.168C909.838 356.123 909.515 356.036 909.229 355.872C908.944 355.707 908.707 355.47 908.543 355.185L904.213 347.685C903.64 346.695 904.08 345.418 905.195 345.175C908.391 344.476 911.732 344.996 914.564 346.631C917.397 348.267 919.517 350.901 920.51 354.018ZM898.3 349.16C899.068 348.315 900.395 348.573 900.965 349.56L905.295 357.06C905.46 357.345 905.546 357.668 905.546 357.998C905.546 358.327 905.46 358.65 905.295 358.935L900.965 366.435C900.393 367.428 899.065 367.685 898.298 366.838C896.092 364.423 894.871 361.27 894.875 358C894.871 354.729 896.093 351.574 898.3 349.16ZM905.195 370.825C904.078 370.58 903.638 369.305 904.21 368.315L908.543 360.81C908.707 360.525 908.944 360.288 909.229 360.123C909.515 359.959 909.838 359.872 910.168 359.873H918.83C919.973 359.873 920.855 360.89 920.51 361.978C919.518 365.095 917.399 367.73 914.566 369.367C911.733 371.003 908.391 371.523 905.195 370.825Z" fill="white"/>
<path fill-rule="evenodd" clip-rule="evenodd" d="M930.5 359.875C930.997 359.875 931.474 359.677 931.826 359.326C932.177 358.974 932.375 358.497 932.375 358C932.375 357.503 932.177 357.026 931.826 356.674C931.474 356.323 930.997 356.125 930.5 356.125H928.542C928.44 354.98 928.242 353.845 927.95 352.732L929.785 352.065C930.016 351.981 930.229 351.852 930.411 351.685C930.592 351.519 930.739 351.319 930.843 351.095C930.948 350.872 931.007 350.631 931.017 350.385C931.028 350.138 930.99 349.893 930.906 349.661C930.822 349.43 930.693 349.217 930.527 349.036C930.36 348.854 930.16 348.707 929.937 348.603C929.713 348.499 929.472 348.44 929.226 348.429C928.98 348.418 928.734 348.456 928.503 348.54L926.665 349.21C926.175 348.17 925.599 347.174 924.943 346.23L926.443 344.972C926.635 344.816 926.795 344.622 926.912 344.403C927.03 344.184 927.102 343.943 927.126 343.696C927.149 343.448 927.123 343.199 927.049 342.961C926.975 342.724 926.855 342.504 926.695 342.313C926.536 342.123 926.34 341.966 926.119 341.852C925.898 341.738 925.656 341.669 925.409 341.649C925.161 341.629 924.911 341.659 924.675 341.736C924.439 341.814 924.221 341.937 924.033 342.1L922.532 343.36C921.717 342.551 920.836 341.811 919.898 341.147L920.875 339.452C921 339.239 921.082 339.003 921.115 338.758C921.149 338.513 921.133 338.264 921.07 338.025C921.007 337.786 920.897 337.562 920.747 337.365C920.597 337.169 920.409 337.004 920.195 336.88C919.981 336.757 919.744 336.677 919.499 336.645C919.254 336.613 919.005 336.63 918.766 336.695C918.528 336.76 918.304 336.871 918.109 337.022C917.913 337.174 917.75 337.363 917.628 337.577L916.653 339.267C915.608 338.786 914.525 338.393 913.415 338.092L913.755 336.167C913.831 335.682 913.713 335.187 913.427 334.788C913.142 334.389 912.711 334.117 912.227 334.032C911.744 333.947 911.246 334.055 910.842 334.333C910.437 334.61 910.157 335.036 910.062 335.517L909.722 337.442C908.577 337.348 907.426 337.348 906.28 337.442L905.94 335.517C905.902 335.271 905.814 335.035 905.684 334.823C905.553 334.61 905.381 334.426 905.178 334.281C904.976 334.136 904.746 334.033 904.503 333.978C904.26 333.923 904.008 333.916 903.762 333.96C903.517 334.003 903.282 334.095 903.073 334.229C902.863 334.364 902.682 334.54 902.541 334.745C902.4 334.951 902.302 335.183 902.251 335.427C902.201 335.671 902.199 335.923 902.248 336.167L902.588 338.092C901.468 338.395 900.388 338.792 899.353 339.267L898.378 337.577C898.254 337.364 898.09 337.177 897.895 337.027C897.7 336.877 897.477 336.767 897.239 336.703C897.001 336.639 896.752 336.623 896.508 336.655C896.264 336.687 896.028 336.767 895.815 336.89C895.602 337.013 895.415 337.177 895.265 337.372C895.114 337.568 895.004 337.791 894.941 338.029C894.877 338.267 894.86 338.515 894.892 338.759C894.925 339.004 895.004 339.239 895.128 339.452L896.108 341.147C895.169 341.811 894.288 342.551 893.473 343.36L891.973 342.1C891.592 341.78 891.099 341.625 890.604 341.668C890.108 341.711 889.65 341.949 889.33 342.33C889.01 342.711 888.855 343.203 888.898 343.699C888.941 344.194 889.179 344.653 889.56 344.972L891.06 346.23C890.404 347.174 889.828 348.17 889.338 349.21L887.5 348.54C887.033 348.37 886.517 348.393 886.066 348.603C885.615 348.813 885.266 349.194 885.096 349.661C884.926 350.129 884.949 350.645 885.159 351.095C885.369 351.546 885.75 351.895 886.218 352.065L888.055 352.732C887.762 353.844 887.563 354.978 887.46 356.122H885.503C885.005 356.122 884.528 356.32 884.177 356.672C883.825 357.023 883.628 357.5 883.628 357.997C883.628 358.495 883.825 358.972 884.177 359.323C884.528 359.675 885.005 359.872 885.503 359.872H887.46C887.565 361.032 887.765 362.165 888.055 363.262L886.218 363.932C885.75 364.103 885.369 364.451 885.159 364.902C884.949 365.353 884.926 365.869 885.096 366.336C885.266 366.804 885.615 367.184 886.066 367.395C886.517 367.605 887.033 367.628 887.5 367.457L889.338 366.787C889.83 367.83 890.408 368.827 891.063 369.765L889.563 371.025C889.186 371.346 888.951 371.802 888.909 372.295C888.867 372.788 889.022 373.278 889.34 373.657C889.657 374.036 890.112 374.275 890.605 374.32C891.098 374.366 891.588 374.215 891.97 373.9L893.473 372.637C894.288 373.445 895.17 374.187 896.108 374.85L895.128 376.55C894.879 376.981 894.812 377.493 894.941 377.974C895.069 378.454 895.384 378.864 895.815 379.112C896.246 379.361 896.758 379.428 897.239 379.299C897.719 379.171 898.129 378.856 898.378 378.425L899.353 376.727C900.388 377.207 901.47 377.602 902.588 377.905L902.248 379.83C902.168 380.317 902.283 380.815 902.568 381.218C902.854 381.62 903.286 381.894 903.772 381.98C904.257 382.065 904.757 381.956 905.163 381.676C905.569 381.396 905.848 380.967 905.94 380.482L906.283 378.552C907.427 378.647 908.578 378.647 909.722 378.552L910.062 380.482C910.101 380.729 910.188 380.965 910.319 381.177C910.45 381.39 910.621 381.574 910.824 381.719C911.027 381.864 911.257 381.967 911.5 382.022C911.743 382.077 911.995 382.084 912.24 382.04C912.486 381.997 912.72 381.905 912.93 381.77C913.14 381.636 913.32 381.46 913.461 381.255C913.602 381.049 913.701 380.817 913.751 380.573C913.802 380.329 913.803 380.077 913.755 379.832L913.415 377.905C914.524 377.605 915.607 377.212 916.65 376.73L917.628 378.422C917.876 378.853 918.286 379.168 918.766 379.297C919.247 379.426 919.759 379.359 920.19 379.11C920.621 378.861 920.936 378.452 921.064 377.971C921.193 377.491 921.126 376.978 920.877 376.547L919.895 374.85C920.833 374.187 921.715 373.447 922.53 372.637L924.033 373.897C924.414 374.217 924.906 374.372 925.402 374.329C925.897 374.285 926.355 374.046 926.675 373.665C926.995 373.284 927.15 372.791 927.106 372.296C927.062 371.8 926.824 371.342 926.443 371.022L924.943 369.765C925.595 368.827 926.172 367.83 926.667 366.787L928.505 367.455C928.736 367.539 928.982 367.577 929.228 367.566C929.474 367.555 929.716 367.496 929.939 367.391C930.162 367.287 930.362 367.14 930.528 366.958C930.695 366.777 930.823 366.564 930.907 366.332C930.992 366.101 931.029 365.855 931.018 365.609C931.007 365.363 930.948 365.122 930.844 364.899C930.74 364.676 930.592 364.475 930.411 364.309C930.229 364.143 930.016 364.014 929.785 363.93L927.95 363.262C928.237 362.165 928.437 361.032 928.542 359.872H930.502L930.5 359.875ZM923.858 352.225C923.177 350.352 922.17 348.614 920.882 347.092C919.599 345.577 918.058 344.3 916.333 343.317C913.793 341.873 910.921 341.117 908 341.125C906.973 341.124 905.948 341.216 904.938 341.4C903.045 341.747 901.227 342.418 899.563 343.382C896.168 345.349 893.56 348.431 892.183 352.105C892.158 352.189 892.128 352.27 892.093 352.35C891.451 354.164 891.124 356.075 891.128 358C891.124 360.959 891.9 363.867 893.378 366.43C894.855 368.994 896.981 371.124 899.543 372.605L899.565 372.617C901.252 373.594 903.096 374.269 905.015 374.612L905.07 374.62C907.029 374.963 909.032 374.96 910.99 374.61C912.933 374.264 914.799 373.578 916.502 372.582C918.172 371.606 919.661 370.351 920.908 368.872L920.93 368.847L920.952 368.822C922.234 367.289 923.233 365.54 923.903 363.657C924.535 361.89 924.877 359.985 924.877 358C924.877 356.031 924.532 354.077 923.858 352.227V352.225Z" fill="white"/>
<path fill-rule="evenodd" clip-rule="evenodd" d="M387.158 405.375C383.337 405.375 380.079 408.137 379.45 411.904L378.708 416.371C378.625 416.871 378.229 417.454 377.471 417.821C376.043 418.507 374.67 419.301 373.363 420.196C372.671 420.675 371.971 420.721 371.488 420.542L367.25 418.95C365.518 418.301 363.611 418.288 361.87 418.913C360.129 419.538 358.666 420.76 357.742 422.362L353.9 429.017C352.975 430.618 352.649 432.496 352.978 434.315C353.308 436.135 354.272 437.779 355.7 438.954L359.2 441.838C359.596 442.163 359.908 442.792 359.842 443.629C359.723 445.209 359.723 446.795 359.842 448.375C359.904 449.208 359.596 449.842 359.204 450.167L355.7 453.05C354.272 454.225 353.308 455.869 352.978 457.689C352.649 459.508 352.975 461.386 353.9 462.987L357.742 469.642C358.667 471.243 360.13 472.465 361.871 473.089C363.612 473.713 365.518 473.699 367.25 473.05L371.496 471.458C371.975 471.279 372.675 471.329 373.371 471.8C374.671 472.692 376.042 473.487 377.475 474.175C378.233 474.542 378.629 475.125 378.712 475.633L379.454 480.096C380.083 483.862 383.342 486.625 387.163 486.625H394.846C398.663 486.625 401.925 483.862 402.554 480.096L403.296 475.629C403.379 475.129 403.771 474.546 404.533 474.175C405.967 473.487 407.337 472.692 408.637 471.8C409.333 471.325 410.033 471.279 410.513 471.458L414.762 473.05C416.494 473.697 418.398 473.709 420.138 473.084C421.877 472.459 423.338 471.238 424.263 469.637L428.108 462.983C429.033 461.382 429.36 459.504 429.03 457.685C428.7 455.865 427.736 454.221 426.308 453.046L422.808 450.162C422.413 449.837 422.1 449.208 422.167 448.371C422.285 446.791 422.285 445.205 422.167 443.625C422.1 442.792 422.412 442.158 422.804 441.833L426.304 438.95C429.254 436.525 430.017 432.325 428.108 429.012L424.267 422.358C423.342 420.757 421.879 419.535 420.137 418.911C418.396 418.287 416.49 418.301 414.758 418.95L410.508 420.542C410.033 420.721 409.333 420.671 408.637 420.196C407.332 419.301 405.96 418.507 404.533 417.821C403.771 417.458 403.379 416.875 403.296 416.371L402.55 411.904C402.246 410.079 401.305 408.422 399.893 407.226C398.482 406.03 396.692 405.375 394.842 405.375H387.163H387.158ZM391 461.625C395.144 461.625 399.118 459.979 402.049 457.049C404.979 454.118 406.625 450.144 406.625 446C406.625 441.856 404.979 437.882 402.049 434.951C399.118 432.021 395.144 430.375 391 430.375C386.856 430.375 382.882 432.021 379.951 434.951C377.021 437.882 375.375 441.856 375.375 446C375.375 450.144 377.021 454.118 379.951 457.049C382.882 459.979 386.856 461.625 391 461.625Z" fill="white"/>
<g clip-path="url(#clip1_1_2)">
<path fill-rule="evenodd" clip-rule="evenodd" d="M448.574 503.103C446.235 502.163 443.559 503.052 442.247 505.204L440.693 507.757C440.519 508.043 440.133 508.302 439.578 508.34C438.535 508.409 437.499 508.557 436.478 508.783C435.936 508.906 435.496 508.762 435.245 508.534L433.041 506.516C432.14 505.692 430.976 505.214 429.756 505.169C428.536 505.123 427.339 505.511 426.379 506.265L422.388 509.394C421.428 510.147 420.766 511.217 420.52 512.412C420.273 513.607 420.459 514.851 421.044 515.923L422.478 518.55C422.64 518.846 422.677 519.309 422.43 519.805C421.968 520.743 421.578 521.715 421.262 522.711C421.095 523.237 420.75 523.549 420.43 523.652L417.574 524.555C416.411 524.923 415.416 525.692 414.766 526.725C414.116 527.759 413.854 528.989 414.026 530.197L414.741 535.218C414.913 536.426 415.508 537.534 416.421 538.345C417.333 539.156 418.504 539.617 419.724 539.645L422.716 539.716C423.054 539.724 423.47 539.927 423.78 540.387C424.357 541.253 425 542.077 425.709 542.851C426.083 543.262 426.182 543.717 426.108 544.049L425.463 546.964C424.922 549.426 426.237 551.919 428.577 552.86L433.282 554.751C435.619 555.691 438.297 554.802 439.609 552.65L441.163 550.098C441.337 549.812 441.721 549.551 442.279 549.512C443.326 549.444 444.361 549.294 445.377 549.068C445.92 548.948 446.36 549.092 446.609 549.32L448.82 551.341C449.721 552.163 450.884 552.639 452.103 552.685C453.322 552.731 454.518 552.342 455.477 551.59L459.471 548.462C460.431 547.708 461.093 546.639 461.339 545.444C461.585 544.248 461.399 543.004 460.814 541.933L459.381 539.306C459.218 539.009 459.182 538.547 459.429 538.051C459.89 537.112 460.281 536.141 460.597 535.144C460.762 534.618 461.109 534.307 461.429 534.204L464.282 533.3C466.685 532.541 468.186 530.157 467.833 527.659L467.118 522.638C466.946 521.43 466.351 520.321 465.438 519.51C464.526 518.7 463.355 518.239 462.134 518.21L459.14 518.139C458.805 518.132 458.389 517.929 458.08 517.467C457.5 516.597 456.855 515.773 456.151 515.002C455.773 514.592 455.677 514.139 455.75 513.809L456.393 510.89C456.656 509.698 456.487 508.451 455.917 507.372C455.347 506.292 454.413 505.45 453.28 504.995L448.577 503.104L448.574 503.103ZM437.081 538.495C439.618 539.515 442.457 539.486 444.973 538.412C447.489 537.339 449.475 535.311 450.495 532.773C451.515 530.235 451.486 527.396 450.412 524.881C449.339 522.365 447.311 520.379 444.773 519.358C442.235 518.338 439.396 518.368 436.881 519.441C434.365 520.514 432.379 522.543 431.358 525.081C430.338 527.618 430.368 530.457 431.441 532.973C432.514 535.489 434.543 537.475 437.081 538.495Z" fill="white"/>
</g>
<circle cx="675" cy="437" r="92" fill="#E86A6A"/>
<circle cx="675" cy="437" r="75.2727" fill="white"/>
<circle cx="675" cy="437" r="58.5455" fill="#E86A6A"/>
<circle cx="675" cy="437" r="41.8182" fill="white"/>
<circle cx="675" cy="438.673" r="25.0909" fill="#E86A6A"/>
<path d="M599.094 406.419L565.603 417.401C541.584 400.937 559.254 395.308 571.091 394.551C547.741 377.013 563.931 376.548 574.945 378.507L599.094 406.419Z" fill="#E86A6A" stroke="#E86A6A"/>
<path d="M671.296 437.268L580.659 409.288L586.858 394.046L671.296 437.268Z" fill="black"/>
<path d="M186.634 163.258C180.97 162.768 174.244 170.968 171.589 175.129L185.247 167.155L198.71 167.339C197.045 166.183 192.298 163.748 186.634 163.258Z" fill="black" stroke="black"/>
<path d="M319.213 136.403C319.213 130.258 318.714 125.773 317.635 121.123H247.46V148.86H288.651C287.821 155.753 283.336 166.134 273.37 173.11L273.231 174.038L295.419 191.227L296.956 191.381C311.074 178.342 319.213 159.158 319.213 136.403Z" fill="#4285F4"/>
<path d="M247.46 209.485C267.64 209.485 284.581 202.841 296.956 191.381L273.37 173.11C267.059 177.511 258.588 180.584 247.46 180.584C227.695 180.584 210.919 167.546 204.939 149.525L204.063 149.599L180.992 167.454L180.69 168.293C192.981 192.709 218.227 209.485 247.46 209.485Z" fill="#34A853"/>
<path d="M204.939 149.525C203.362 144.874 202.448 139.891 202.448 134.742C202.448 129.593 203.362 124.611 204.856 119.96L204.815 118.969L181.454 100.827L180.69 101.191C175.624 111.323 172.718 122.701 172.718 134.742C172.718 146.784 175.624 158.161 180.69 168.293L204.939 149.525Z" fill="#FBBC05"/>
<path d="M247.46 88.9002C261.495 88.9002 270.962 94.9626 276.36 100.029L297.454 79.433C284.499 67.3912 267.64 60 247.46 60C218.227 60 192.981 76.7754 180.69 101.191L204.856 119.96C210.919 101.939 227.695 88.9002 247.46 88.9002Z" fill="#EB4335"/>
<path d="M192 189L177 186H192L201.5 178H204L192 189Z" fill="black" stroke="black"/>
<line x1="118.002" y1="262.179" x2="170.89" y2="185.675" stroke="black" stroke-width="10"/>
<ellipse cx="172.797" cy="184.758" rx="7.95729" ry="11.5919" transform="rotate(157.433 172.797 184.758)" fill="#E86A6A"/>
<line x1="181.777" y1="331.569" x2="119.853" y2="262.175" stroke="black" stroke-width="10"/>
<circle cx="119.183" cy="262.183" r="6" transform="rotate(47.6398 119.183 262.183)" fill="#E86A6A" stroke="white"/>
<line x1="276.946" y1="334" x2="183.946" y2="333" stroke="black" stroke-width="10"/>
<circle cx="183.5" cy="333.5" r="6" fill="#E86A6A" stroke="white"/>
<path d="M148.045 604.323C142.364 604.119 136.059 612.647 133.617 616.936L146.856 608.285L160.312 607.791C158.59 606.72 153.727 604.527 148.045 604.323Z" fill="black" stroke="black"/>
<path d="M275.25 554.125L162.75 554.125C157.579 554.125 153.375 558.329 153.375 563.5L153.375 638.5C153.375 643.671 157.579 647.875 162.75 647.875L247.213 647.875L275.279 666.581L275.25 647.875C280.421 647.875 284.625 643.671 284.625 638.5L284.625 563.5C284.625 558.329 280.421 554.125 275.25 554.125Z" fill="#34A853"/>
<path d="M237.75 601C237.75 582.631 230.206 566.034 218.048 554.125L162.75 554.125C157.579 554.125 153.375 558.329 153.375 563.5L153.375 638.5C153.375 643.671 157.579 647.875 162.75 647.875L218.048 647.875C230.206 635.966 237.75 619.369 237.75 601Z" fill="#72BF87"/>
<path d="M172.125 601C172.125 603.486 173.113 605.871 174.871 607.629C176.629 609.387 179.014 610.375 181.5 610.375C183.986 610.375 186.371 609.387 188.129 607.629C189.887 605.871 190.875 603.486 190.875 601C190.875 598.514 189.887 596.129 188.129 594.371C186.371 592.613 183.986 591.625 181.5 591.625C179.014 591.625 176.629 592.613 174.871 594.371C173.113 596.129 172.125 598.514 172.125 601Z" fill="white"/>
<path d="M209.625 601C209.625 603.486 210.613 605.871 212.371 607.629C214.129 609.387 216.514 610.375 219 610.375C221.486 610.375 223.871 609.387 225.629 607.629C227.387 605.871 228.375 603.486 228.375 601C228.375 598.514 227.387 596.129 225.629 594.371C223.871 592.613 221.486 591.625 219 591.625C216.514 591.625 214.129 592.613 212.371 594.371C210.613 596.129 209.625 598.514 209.625 601Z" fill="white"/>
<path d="M247.125 601C247.125 603.486 248.113 605.871 249.871 607.629C251.629 609.387 254.014 610.375 256.5 610.375C258.986 610.375 261.371 609.387 263.129 607.629C264.887 605.871 265.875 603.486 265.875 601C265.875 598.514 264.887 596.129 263.129 594.371C261.371 592.613 258.986 591.625 256.5 591.625C254.014 591.625 251.629 592.613 249.871 594.371C248.113 596.129 247.125 598.514 247.125 601Z" fill="white"/>
<path d="M147.838 633.88L130.568 621.852L149.477 630.143L165.823 625.427L168.974 626.808L147.838 633.88Z" fill="black" stroke="black"/>
<line x1="120.11" y1="531.41" x2="129.636" y2="623.926" stroke="black" stroke-width="10"/>
<ellipse cx="132.623" cy="619.69" rx="7.95729" ry="11.5919" transform="rotate(-158.711 132.623 619.69)" fill="#E86A6A"/>
<line x1="180.625" y1="460.69" x2="118.099" y2="529.541" stroke="black" stroke-width="10"/>
<circle cx="118.176" cy="530.207" r="6" transform="rotate(-48.3726 118.176 530.207)" fill="#E86A6A" stroke="white"/>
<line x1="276.946" y1="459" x2="183.946" y2="458" stroke="black" stroke-width="10"/>
<circle cx="183.5" cy="458.5" r="6" fill="#E86A6A" stroke="white"/>
<path d="M601.315 51.9703C596.212 49.4631 586.974 54.6708 582.993 57.5881L598.611 55.1009L611.094 60.1469C609.96 58.466 606.417 54.4775 601.315 51.9703Z" fill="black" stroke="black"/>
<g clip-path="url(#clip2_1_2)">
<path d="M671 165C712.421 165 746 131.421 746 90C746 48.5786 712.421 15 671 15C629.579 15 596 48.5786 596 90C596 131.421 629.579 165 671 165Z" fill="#3C5A9A"/>
<path d="M695.387 38.0211H678.773C668.913 38.0211 657.946 42.1678 657.946 56.4596C657.995 61.4394 657.946 66.2086 657.946 71.576H646.54V89.7265H658.299V141.979H679.907V89.3817H694.169L695.46 71.525H679.535C679.535 71.525 679.571 63.5817 679.535 61.2749C679.535 55.6271 685.412 55.9505 685.765 55.9505C688.562 55.9505 693.999 55.9587 695.395 55.9505V38.0211H695.387Z" fill="white"/>
</g>
<path d="M588.564 78.5001L583.591 64.0341L591.155 76.9874L602.853 81.157L604.114 83.3159L588.564 78.5001Z" fill="black" stroke="black"/>
<path d="M508.258 80.6316L586 59.8881" stroke="black" stroke-width="10"/>
<ellipse cx="582.068" cy="63.1427" rx="7.97707" ry="11.5919" transform="rotate(-146.865 582.068 63.1427)" fill="#E86A6A"/>
<line y1="-5" x2="68.6795" y2="-5" transform="matrix(0.65364 -0.756806 0.761117 0.648615 470.429 135.58)" stroke="black" stroke-width="10"/>
<path d="M508.58 83.0809C507.279 81.9892 506.442 80.6234 506.127 79.3162C505.811 78.0088 506.02 76.7964 506.746 75.931C507.471 75.0657 508.629 74.6485 509.971 74.7315C511.313 74.8146 512.804 75.4 514.106 76.4917C515.408 77.5834 516.244 78.9492 516.56 80.2564C516.875 81.5638 516.666 82.7763 515.941 83.6416C515.215 84.507 514.058 84.9241 512.715 84.8411C511.373 84.7581 509.882 84.1726 508.58 83.0809Z" fill="#E86A6A" stroke="white"/>
<line x1="466" y1="225.834" x2="467" y2="132.834" stroke="black" stroke-width="10"/>
<circle cx="466.5" cy="132.388" r="6" transform="rotate(90 466.5 132.388)" fill="#E86A6A" stroke="white"/>
<path d="M1103.43 158.694C1104.26 164.317 1113.8 168.958 1118.46 170.576L1107.54 159.139L1104.59 146C1103.86 147.888 1102.59 153.071 1103.43 158.694Z" fill="black" stroke="black"/>
<g clip-path="url(#clip3_1_2)">
<path d="M1107.99 155.083C1107.99 155.904 1107.97 157.685 1107.92 159.061C1107.8 162.428 1107.53 166.772 1107.13 168.751C1106.52 171.726 1105.6 174.533 1104.41 176.87C1103 179.635 1101.2 182.111 1099.05 184.248C1096.92 186.381 1094.44 188.175 1091.68 189.582C1089.33 190.779 1086.51 191.695 1083.52 192.299C1081.56 192.695 1077.25 192.957 1073.9 193.076C1072.52 193.125 1070.74 193.15 1069.92 193.15L996.064 193.138C995.242 193.138 993.461 193.113 992.085 193.063C988.719 192.943 984.375 192.676 982.395 192.272C979.421 191.666 976.613 190.75 974.276 189.556C971.512 188.143 969.036 186.342 966.899 184.201C964.766 182.064 962.971 179.591 961.564 176.83C960.367 174.481 959.451 171.656 958.847 168.665C958.452 166.705 958.19 162.394 958.071 159.048C958.022 157.671 957.997 155.89 957.997 155.072L958.009 81.21C958.009 80.3887 958.034 78.6076 958.083 77.2316C958.204 73.865 958.471 69.5208 958.874 67.5415C959.481 64.567 960.396 61.7594 961.59 59.4225C963.003 56.6582 964.805 54.182 966.946 52.045C969.082 49.9123 971.556 48.1174 974.316 46.7106C976.665 45.5135 979.491 44.5974 982.482 43.9935C984.441 43.5978 988.753 43.336 992.098 43.2171C993.476 43.168 995.257 43.1433 996.075 43.1433L1069.94 43.1551C1070.76 43.1551 1072.54 43.1802 1073.91 43.2295C1077.28 43.3504 1081.63 43.6171 1083.61 44.0207C1086.58 44.6273 1089.39 45.5428 1091.72 46.7368C1094.49 48.1494 1096.96 49.9513 1099.1 52.0921C1101.23 54.2285 1103.03 56.7021 1104.44 59.4625C1105.63 61.8117 1106.55 64.6368 1107.15 67.6281C1107.55 69.5878 1107.81 73.8994 1107.93 77.2447C1107.98 78.6219 1108 80.4035 1108 81.2217L1107.99 155.083V155.083Z" fill="url(#paint0_linear_1_2)"/>
<path d="M1072.74 78.6317C1062.59 68.4676 1049.08 62.8672 1034.69 62.8615C1005.04 62.8615 980.911 86.9828 980.899 116.632C980.895 126.109 983.372 135.36 988.079 143.515L980.448 171.381L1008.96 163.903C1016.82 168.187 1025.67 170.444 1034.67 170.448L1034.69 170.448C1064.34 170.448 1088.47 146.324 1088.48 116.675C1088.49 102.306 1082.9 88.7959 1072.74 78.6317ZM1034.69 161.366L1034.67 161.366C1026.65 161.363 1018.78 159.209 1011.92 155.136L1010.28 154.168L993.363 158.605L997.88 142.112L996.816 140.421C992.341 133.305 989.977 125.08 989.981 116.635C989.99 91.9924 1010.05 71.9436 1034.71 71.9436C1046.65 71.9481 1057.88 76.6034 1066.32 85.0513C1074.76 93.4992 1079.4 104.729 1079.4 116.671C1079.39 141.316 1059.33 161.366 1034.69 161.366ZM1059.21 127.892C1057.87 127.22 1051.26 123.969 1050.03 123.521C1048.8 123.072 1047.9 122.848 1047.01 124.194C1046.11 125.539 1043.53 128.565 1042.75 129.462C1041.97 130.358 1041.18 130.471 1039.84 129.798C1038.49 129.125 1034.16 127.707 1029.03 123.129C1025.03 119.567 1022.34 115.166 1021.55 113.821C1020.77 112.476 1021.47 111.749 1022.14 111.079C1022.75 110.477 1023.49 109.51 1024.16 108.725C1024.83 107.941 1025.05 107.38 1025.5 106.483C1025.95 105.586 1025.73 104.802 1025.39 104.129C1025.05 103.457 1022.37 96.8433 1021.25 94.1531C1020.16 91.5331 1019.05 91.8875 1018.22 91.8464C1017.44 91.8074 1016.54 91.7992 1015.65 91.7992C1014.75 91.7992 1013.29 92.1354 1012.06 93.4806C1010.83 94.8257 1007.36 98.0764 1007.36 104.69C1007.36 111.303 1012.17 117.692 1012.85 118.589C1013.52 119.486 1022.32 133.057 1035.81 138.877C1039.01 140.262 1041.52 141.088 1043.47 141.708C1046.69 142.73 1049.62 142.586 1051.93 142.24C1054.52 141.854 1059.89 138.99 1061.01 135.851C1062.13 132.712 1062.13 130.022 1061.79 129.462C1061.45 128.901 1060.56 128.565 1059.21 127.892Z" fill="white"/>
</g>
<path d="M1118.06 143.613L1121.94 163.546L1113.59 145.703L1096.39 139.974L1095 137L1118.06 143.613Z" fill="black" stroke="black"/>
<path d="M1144.93 241.957L1121.23 165.063" stroke="black" stroke-width="10"/>
<ellipse cx="1124.63" cy="168.868" rx="7.97707" ry="11.5919" transform="rotate(66.7808 1124.63 168.868)" fill="#E86A6A"/>
<line y1="-5" x2="68.6795" y2="-5" transform="matrix(0.65364 -0.756806 0.761117 0.648615 1103.43 296.648)" stroke="black" stroke-width="10"/>
<path d="M1141.58 244.149C1140.28 243.057 1139.44 241.691 1139.13 240.384C1138.81 239.077 1139.02 237.864 1139.75 236.999C1140.47 236.134 1141.63 235.717 1142.97 235.8C1144.31 235.883 1145.8 236.468 1147.11 237.56C1148.41 238.651 1149.24 240.017 1149.56 241.324C1149.88 242.632 1149.67 243.844 1148.94 244.71C1148.22 245.575 1147.06 245.992 1145.72 245.909C1144.37 245.826 1142.88 245.241 1141.58 244.149Z" fill="#E86A6A" stroke="white"/>
<line x1="1008.05" y1="293" x2="1101.05" y2="294" stroke="black" stroke-width="10"/>
<circle cx="1101.5" cy="293.5" r="6" transform="rotate(-180 1101.5 293.5)" fill="#E86A6A" stroke="white"/>
<path d="M1201.02 460.32C1198.45 455.25 1187.94 453.863 1183 453.803L1196.98 461.198L1203.93 472.732C1204.03 470.707 1203.6 465.39 1201.02 460.32Z" fill="black" stroke="black"/>
<g clip-path="url(#clip4_1_2)">
<path d="M1238.69 470.738C1245.45 470.738 1250.98 476.268 1250.98 483.026L1250.98 486.589L1233.91 498.784L1175.79 538.821L1117.66 498.378L1117.66 579.262L1113.29 579.262C1106.53 579.262 1101 573.732 1101 566.974L1101 483.03C1101 476.271 1106.53 470.741 1113.29 470.741L1175.79 517.078L1238.69 470.741L1238.69 470.738Z" fill="#E75A4D"/>
<path d="M1113.29 470.738L1175.79 517.075L1238.69 470.738L1113.29 470.738Z" fill="url(#paint1_linear_1_2)"/>
<path d="M1117.66 498.378L1117.66 579.262L1233.91 579.262L1233.91 498.784L1175.79 538.821L1117.66 498.378Z" fill="#E7E4D7"/>
<path d="M1117.66 579.262L1175.79 538.821L1175.52 538.635L1117.66 578.373L1117.66 579.262Z" fill="#B8B7AE"/>
<path d="M1233.91 498.784L1233.94 579.262L1175.79 538.821L1233.91 498.784Z" fill="#B7B6AD"/>
<path d="M1250.98 486.589L1251 566.984C1250.71 575.919 1246.84 579.109 1233.94 579.259L1233.91 498.78L1250.98 486.585L1250.98 486.589Z" fill="#B2392F"/>
<path d="M1113.29 470.738L1175.79 517.075L1238.69 470.738L1113.29 470.738Z" fill="url(#paint2_linear_1_2)"/>
<path d="M1113.29 470.738L1175.79 517.075L1238.69 470.738L1113.29 470.738Z" fill="url(#paint3_linear_1_2)"/>
<path d="M1113.29 470.738L1175.79 517.075L1238.69 470.738L1113.29 470.738Z" fill="url(#paint4_linear_1_2)"/>
<path d="M1113.29 470.738L1175.79 517.075L1238.69 470.738L1113.29 470.738Z" fill="url(#paint5_linear_1_2)"/>
<path d="M1113.29 470.738L1175.79 517.075L1238.69 470.738L1113.29 470.738Z" fill="url(#paint6_linear_1_2)"/>
<path d="M1113.29 470.738L1175.79 517.075L1238.69 470.738L1113.29 470.738Z" fill="url(#paint7_linear_1_2)"/>
<path d="M1113.29 470.738L1175.79 517.075L1238.69 470.738L1113.29 470.738Z" fill="url(#paint8_linear_1_2)"/>
<path d="M1113.29 470.738L1175.79 517.075L1238.69 470.738L1113.29 470.738Z" fill="#F7F5ED"/>
</g>
<path d="M1171.1 474.033L1171.82 453.739L1175.93 473.006L1191.39 482.47L1192.07 485.681L1171.1 474.033Z" fill="black" stroke="black"/>
<path d="M1134.97 391.243L1181.77 456.697" stroke="black" stroke-width="10"/>
<ellipse cx="1177.34" cy="454.163" rx="7.97707" ry="11.5919" transform="rotate(-95.2609 1177.34 454.163)" fill="#E86A6A"/>
<line y1="-5" x2="68.6795" y2="-5" transform="matrix(0.65364 -0.756806 0.761117 0.648615 1095.11 446.325)" stroke="black" stroke-width="10"/>
<path d="M1133.26 393.826C1131.96 392.734 1131.12 391.368 1130.8 390.061C1130.49 388.754 1130.7 387.541 1131.42 386.676C1132.15 385.81 1133.31 385.393 1134.65 385.476C1135.99 385.559 1137.48 386.145 1138.78 387.237C1140.08 388.328 1140.92 389.694 1141.24 391.001C1141.55 392.309 1141.34 393.521 1140.62 394.386C1139.89 395.252 1138.73 395.669 1137.39 395.586C1136.05 395.503 1134.56 394.917 1133.26 393.826Z" fill="#E86A6A" stroke="white"/>
<line x1="999.731" y1="442.677" x2="1092.73" y2="443.677" stroke="black" stroke-width="10"/>
<circle cx="1093.18" cy="443.177" r="6" transform="rotate(-180 1093.18 443.177)" fill="#E86A6A" stroke="white"/>
</g>
<defs>
<linearGradient id="paint0_linear_1_2" x1="1033" y1="43.1433" x2="1033" y2="193.15" gradientUnits="userSpaceOnUse">
<stop stop-color="#61FD7D"/>
<stop offset="1" stop-color="#2BB826"/>
</linearGradient>
<linearGradient id="paint1_linear_1_2" x1="1135.85" y1="493.91" x2="1215.98" y2="493.91" gradientUnits="userSpaceOnUse">
<stop stop-color="#F8F6EF"/>
<stop offset="1" stop-color="#E7E4D6"/>
</linearGradient>
<linearGradient id="paint2_linear_1_2" x1="1135.85" y1="493.91" x2="1215.98" y2="493.91" gradientUnits="userSpaceOnUse">
<stop stop-color="#F8F6EF"/>
<stop offset="1" stop-color="#E7E4D6"/>
</linearGradient>
<linearGradient id="paint3_linear_1_2" x1="1135.85" y1="493.91" x2="1215.98" y2="493.91" gradientUnits="userSpaceOnUse">
<stop stop-color="#F8F6EF"/>
<stop offset="1" stop-color="#E7E4D6"/>
</linearGradient>
<linearGradient id="paint4_linear_1_2" x1="1135.85" y1="493.91" x2="1215.98" y2="493.91" gradientUnits="userSpaceOnUse">
<stop stop-color="#F8F6EF"/>
<stop offset="1" stop-color="#E7E4D6"/>
</linearGradient>
<linearGradient id="paint5_linear_1_2" x1="1135.85" y1="493.91" x2="1215.98" y2="493.91" gradientUnits="userSpaceOnUse">
<stop stop-color="#F8F6EF"/>
<stop offset="1" stop-color="#E7E4D6"/>
</linearGradient>
<linearGradient id="paint6_linear_1_2" x1="1135.85" y1="493.91" x2="1215.98" y2="493.91" gradientUnits="userSpaceOnUse">
<stop stop-color="#F8F6EF"/>
<stop offset="1" stop-color="#E7E4D6"/>
</linearGradient>
<linearGradient id="paint7_linear_1_2" x1="1135.85" y1="493.91" x2="1215.98" y2="493.91" gradientUnits="userSpaceOnUse">
<stop stop-color="#F8F6EF"/>
<stop offset="1" stop-color="#E7E4D6"/>
</linearGradient>
<linearGradient id="paint8_linear_1_2" x1="1135.85" y1="493.91" x2="1215.98" y2="493.91" gradientUnits="userSpaceOnUse">
<stop stop-color="#F8F6EF"/>
<stop offset="1" stop-color="#E7E4D6"/>
</linearGradient>
<clipPath id="clip0_1_2">
<rect width="1280" height="832" fill="white"/>
</clipPath>
<clipPath id="clip1_1_2">
<rect width="66" height="66" fill="white" transform="translate(422.616 486) rotate(21.8988)"/>
</clipPath>
<clipPath id="clip2_1_2">
<rect width="150" height="150" fill="white" transform="translate(596 15)"/>
</clipPath>
<clipPath id="clip3_1_2">
<rect width="150" height="150" fill="white" transform="translate(958 43)"/>
</clipPath>
<clipPath id="clip4_1_2">
<rect width="150" height="150" fill="white" transform="translate(1101 450)"/>
</clipPath>
</defs>
</svg>
