<svg xmlns="http://www.w3.org/2000/svg" xmlns:xlink="http://www.w3.org/1999/xlink" width="500" zoomAndPan="magnify" viewBox="0 0 375 187.499995" height="250" preserveAspectRatio="xMidYMid meet" version="1.0"><defs><g/></defs><g fill="#000000" fill-opacity="1"><g transform="translate(13.522444, 116.392042)"><g><path d="M 47.765625 -18.375 C 47.765625 -16.039062 47.34375 -13.75 46.5 -11.5 C 45.65625 -9.257812 44.3125 -7.203125 42.46875 -5.328125 C 40.632812 -3.460938 38.1875 -1.976562 35.125 -0.875 C 32.0625 0.226562 28.316406 0.78125 23.890625 0.78125 C 20.441406 0.78125 17.375 0.601562 14.6875 0.25 C 12.007812 -0.09375 9.5625 -0.554688 7.34375 -1.140625 C 6.9375 -1.253906 6.539062 -1.457031 6.15625 -1.75 C 5.78125 -2.039062 5.59375 -2.421875 5.59375 -2.890625 L 5.59375 -11.453125 C 5.59375 -12.566406 6.117188 -13.125 7.171875 -13.125 C 7.234375 -13.125 7.273438 -13.125 7.296875 -13.125 C 7.328125 -13.125 7.375 -13.125 7.4375 -13.125 C 8.3125 -13.0625 9.503906 -12.957031 11.015625 -12.8125 C 12.535156 -12.664062 14.140625 -12.546875 15.828125 -12.453125 C 17.523438 -12.367188 19.101562 -12.285156 20.5625 -12.203125 C 22.019531 -12.117188 23.1875 -12.078125 24.0625 -12.078125 C 27.09375 -12.078125 29.144531 -12.570312 30.21875 -13.5625 C 31.300781 -14.550781 31.84375 -16.097656 31.84375 -18.203125 C 31.84375 -19.484375 31.445312 -20.570312 30.65625 -21.46875 C 29.875 -22.375 28.347656 -23.5 26.078125 -24.84375 L 14 -32.015625 C 9.914062 -34.410156 7.171875 -36.992188 5.765625 -39.765625 C 4.367188 -42.535156 3.671875 -45.523438 3.671875 -48.734375 C 3.671875 -51.941406 4.351562 -54.828125 5.71875 -57.390625 C 7.09375 -59.953125 9.410156 -61.988281 12.671875 -63.5 C 15.941406 -65.019531 20.410156 -65.78125 26.078125 -65.78125 C 28.234375 -65.78125 30.535156 -65.675781 32.984375 -65.46875 C 35.429688 -65.269531 37.703125 -65.023438 39.796875 -64.734375 C 41.898438 -64.441406 43.503906 -64.148438 44.609375 -63.859375 C 44.960938 -63.804688 45.269531 -63.644531 45.53125 -63.375 C 45.789062 -63.113281 45.921875 -62.75 45.921875 -62.28125 L 45.921875 -53.453125 C 45.921875 -53.046875 45.816406 -52.695312 45.609375 -52.40625 C 45.410156 -52.113281 45.019531 -51.96875 44.4375 -51.96875 C 44.4375 -51.96875 44.421875 -51.96875 44.390625 -51.96875 C 44.367188 -51.96875 44.328125 -51.96875 44.265625 -51.96875 C 43.679688 -52.019531 42.660156 -52.085938 41.203125 -52.171875 C 39.742188 -52.265625 38.109375 -52.367188 36.296875 -52.484375 C 34.492188 -52.609375 32.660156 -52.710938 30.796875 -52.796875 C 28.929688 -52.878906 27.238281 -52.921875 25.71875 -52.921875 C 23.207031 -52.921875 21.441406 -52.539062 20.421875 -51.78125 C 19.398438 -51.03125 18.890625 -49.867188 18.890625 -48.296875 C 18.890625 -47.066406 19.285156 -46.054688 20.078125 -45.265625 C 20.867188 -44.484375 22.429688 -43.453125 24.765625 -42.171875 L 35.953125 -36.125 C 40.503906 -33.675781 43.609375 -30.992188 45.265625 -28.078125 C 46.929688 -25.160156 47.765625 -21.925781 47.765625 -18.375 Z M 47.765625 -18.375 "/></g></g></g><g fill="#000000" fill-opacity="1"><g transform="translate(64.965383, 116.392042)"><g><path d="M 47.859375 -21.4375 C 47.859375 -17.351562 47.316406 -13.953125 46.234375 -11.234375 C 45.148438 -8.523438 43.765625 -6.351562 42.078125 -4.71875 C 40.390625 -3.09375 38.582031 -1.882812 36.65625 -1.09375 C 34.726562 -0.300781 32.90625 0.207031 31.1875 0.4375 C 29.46875 0.664062 28.050781 0.78125 26.9375 0.78125 L 25.71875 0.78125 C 24.613281 0.78125 23.195312 0.664062 21.46875 0.4375 C 19.75 0.207031 17.925781 -0.300781 16 -1.09375 C 14.082031 -1.882812 12.273438 -3.09375 10.578125 -4.71875 C 8.890625 -6.351562 7.503906 -8.523438 6.421875 -11.234375 C 5.347656 -13.953125 4.8125 -17.351562 4.8125 -21.4375 L 4.8125 -48.296875 C 4.8125 -48.753906 4.972656 -49.171875 5.296875 -49.546875 C 5.617188 -49.929688 6.007812 -50.125 6.46875 -50.125 L 17.234375 -50.125 C 17.703125 -50.125 18.109375 -49.929688 18.453125 -49.546875 C 18.804688 -49.171875 18.984375 -48.753906 18.984375 -48.296875 L 18.984375 -21.4375 C 18.984375 -17.289062 19.59375 -14.546875 20.8125 -13.203125 C 22.039062 -11.867188 23.675781 -11.203125 25.71875 -11.203125 L 26.9375 -11.203125 C 28.976562 -11.203125 30.613281 -11.867188 31.84375 -13.203125 C 33.070312 -14.546875 33.6875 -17.289062 33.6875 -21.4375 L 33.6875 -48.296875 C 33.6875 -48.753906 33.859375 -49.171875 34.203125 -49.546875 C 34.554688 -49.929688 34.96875 -50.125 35.4375 -50.125 L 46.1875 -50.125 C 46.65625 -50.125 47.050781 -49.929688 47.375 -49.546875 C 47.695312 -49.171875 47.859375 -48.753906 47.859375 -48.296875 Z M 47.859375 -21.4375 "/></g></g></g><g fill="#000000" fill-opacity="1"><g transform="translate(117.633159, 116.392042)"><g><path d="M 48.546875 -21.609375 C 48.546875 -14.722656 46.738281 -9.269531 43.125 -5.25 C 39.507812 -1.226562 34 0.78125 26.59375 0.78125 C 25.71875 0.78125 24.625 0.722656 23.3125 0.609375 C 22 0.492188 20.703125 0.347656 19.421875 0.171875 L 19.421875 15.3125 C 19.421875 15.78125 19.242188 16.1875 18.890625 16.53125 C 18.546875 16.882812 18.140625 17.0625 17.671875 17.0625 L 7.09375 17.0625 C 6.625 17.0625 6.195312 16.882812 5.8125 16.53125 C 5.4375 16.1875 5.25 15.78125 5.25 15.3125 L 5.25 -46.015625 C 5.25 -46.710938 5.410156 -47.25 5.734375 -47.625 C 6.054688 -48.007812 6.800781 -48.316406 7.96875 -48.546875 C 10.46875 -49.191406 13.347656 -49.734375 16.609375 -50.171875 C 19.878906 -50.609375 23.207031 -50.828125 26.59375 -50.828125 C 33.707031 -50.828125 39.144531 -48.875 42.90625 -44.96875 C 46.664062 -41.0625 48.546875 -35.550781 48.546875 -28.4375 Z M 34.375 -21.609375 L 34.375 -28.4375 C 34.375 -31.519531 33.847656 -34.066406 32.796875 -36.078125 C 31.753906 -38.097656 29.6875 -39.109375 26.59375 -39.109375 C 23.675781 -39.109375 21.285156 -38.960938 19.421875 -38.671875 L 19.421875 -11.375 C 20.472656 -11.257812 21.664062 -11.140625 23 -11.015625 C 24.34375 -10.898438 25.539062 -10.84375 26.59375 -10.84375 C 29.6875 -10.84375 31.753906 -11.878906 32.796875 -13.953125 C 33.847656 -16.023438 34.375 -18.578125 34.375 -21.609375 Z M 34.375 -21.609375 "/></g></g></g><g fill="#000000" fill-opacity="1"><g transform="translate(169.86349, 116.392042)"><g><path d="M 31.40625 -40.6875 C 31.40625 -39.570312 30.617188 -39.015625 29.046875 -39.015625 C 28.222656 -39.015625 27.171875 -39 25.890625 -38.96875 C 24.609375 -38.945312 23.367188 -38.890625 22.171875 -38.796875 C 20.984375 -38.710938 20.066406 -38.613281 19.421875 -38.5 L 19.421875 -1.84375 C 19.421875 -1.375 19.242188 -0.945312 18.890625 -0.5625 C 18.546875 -0.1875 18.140625 0 17.671875 0 L 7.09375 0 C 6.625 0 6.195312 -0.1875 5.8125 -0.5625 C 5.4375 -0.945312 5.25 -1.375 5.25 -1.84375 L 5.25 -45.484375 C 5.25 -46.128906 5.453125 -46.671875 5.859375 -47.109375 C 6.265625 -47.546875 6.96875 -47.941406 7.96875 -48.296875 C 10.757812 -49.222656 13.929688 -49.875 17.484375 -50.25 C 21.046875 -50.632812 24.898438 -50.828125 29.046875 -50.828125 C 29.566406 -50.828125 30.085938 -50.707031 30.609375 -50.46875 C 31.140625 -50.238281 31.40625 -49.804688 31.40625 -49.171875 Z M 31.40625 -40.6875 "/></g></g></g><g fill="#000000" fill-opacity="1"><g transform="translate(203.283908, 116.392042)"><g><path d="M 47.859375 -21.4375 C 47.859375 -17.351562 47.316406 -13.953125 46.234375 -11.234375 C 45.148438 -8.523438 43.765625 -6.351562 42.078125 -4.71875 C 40.390625 -3.09375 38.582031 -1.882812 36.65625 -1.09375 C 34.726562 -0.300781 32.90625 0.207031 31.1875 0.4375 C 29.46875 0.664062 28.050781 0.78125 26.9375 0.78125 L 25.71875 0.78125 C 24.613281 0.78125 23.195312 0.664062 21.46875 0.4375 C 19.75 0.207031 17.925781 -0.300781 16 -1.09375 C 14.082031 -1.882812 12.273438 -3.09375 10.578125 -4.71875 C 8.890625 -6.351562 7.503906 -8.523438 6.421875 -11.234375 C 5.347656 -13.953125 4.8125 -17.351562 4.8125 -21.4375 L 4.8125 -48.296875 C 4.8125 -48.753906 4.972656 -49.171875 5.296875 -49.546875 C 5.617188 -49.929688 6.007812 -50.125 6.46875 -50.125 L 17.234375 -50.125 C 17.703125 -50.125 18.109375 -49.929688 18.453125 -49.546875 C 18.804688 -49.171875 18.984375 -48.753906 18.984375 -48.296875 L 18.984375 -21.4375 C 18.984375 -17.289062 19.59375 -14.546875 20.8125 -13.203125 C 22.039062 -11.867188 23.675781 -11.203125 25.71875 -11.203125 L 26.9375 -11.203125 C 28.976562 -11.203125 30.613281 -11.867188 31.84375 -13.203125 C 33.070312 -14.546875 33.6875 -17.289062 33.6875 -21.4375 L 33.6875 -48.296875 C 33.6875 -48.753906 33.859375 -49.171875 34.203125 -49.546875 C 34.554688 -49.929688 34.96875 -50.125 35.4375 -50.125 L 46.1875 -50.125 C 46.65625 -50.125 47.050781 -49.929688 47.375 -49.546875 C 47.695312 -49.171875 47.859375 -48.753906 47.859375 -48.296875 Z M 47.859375 -21.4375 "/></g></g></g><g fill="#1d0c8e" fill-opacity="1"><g transform="translate(255.956561, 116.392042)"><g><path d="M 50.734375 -53.1875 C 50.734375 -52.71875 50.617188 -52.410156 50.390625 -52.265625 C 50.160156 -52.117188 49.835938 -52.046875 49.421875 -52.046875 C 49.367188 -52.046875 49.328125 -52.046875 49.296875 -52.046875 C 49.265625 -52.046875 49.222656 -52.046875 49.171875 -52.046875 C 47.066406 -52.171875 44.4375 -52.316406 41.28125 -52.484375 C 38.132812 -52.660156 34.695312 -52.75 30.96875 -52.75 C 28.632812 -52.75 26.609375 -52.3125 24.890625 -51.4375 C 23.171875 -50.5625 21.84375 -49.046875 20.90625 -46.890625 C 19.976562 -44.734375 19.515625 -41.726562 19.515625 -37.875 L 19.515625 -26.9375 C 19.515625 -22.914062 20.035156 -19.828125 21.078125 -17.671875 C 22.128906 -15.515625 23.410156 -14.039062 24.921875 -13.25 C 26.441406 -12.46875 27.90625 -12.078125 29.3125 -12.078125 C 31.695312 -12.078125 33.941406 -12.160156 36.046875 -12.328125 L 36.046875 -32.453125 C 36.046875 -32.921875 36.203125 -33.328125 36.515625 -33.671875 C 36.835938 -34.023438 37.234375 -34.203125 37.703125 -34.203125 L 48.90625 -34.203125 C 49.375 -34.203125 49.78125 -34.023438 50.125 -33.671875 C 50.476562 -33.328125 50.65625 -32.921875 50.65625 -32.453125 L 50.65625 -3.0625 C 50.65625 -1.957031 50.070312 -1.285156 48.90625 -1.046875 C 46.570312 -0.578125 43.816406 -0.15625 40.640625 0.21875 C 37.460938 0.59375 33.6875 0.78125 29.3125 0.78125 C 26.800781 0.78125 24.113281 0.359375 21.25 -0.484375 C 18.394531 -1.328125 15.679688 -2.769531 13.109375 -4.8125 C 10.546875 -6.851562 8.445312 -9.679688 6.8125 -13.296875 C 5.1875 -16.910156 4.375 -21.488281 4.375 -27.03125 L 4.375 -37.875 C 4.375 -43.476562 5.144531 -48.085938 6.6875 -51.703125 C 8.238281 -55.316406 10.3125 -58.144531 12.90625 -60.1875 C 15.5 -62.226562 18.367188 -63.671875 21.515625 -64.515625 C 24.671875 -65.359375 27.820312 -65.78125 30.96875 -65.78125 C 35.34375 -65.78125 39.070312 -65.53125 42.15625 -65.03125 C 45.25 -64.539062 47.613281 -64.125 49.25 -63.78125 C 50.238281 -63.601562 50.734375 -63.164062 50.734375 -62.46875 Z M 50.734375 -53.1875 "/></g></g></g><g fill="#1d0c8e" fill-opacity="1"><g transform="translate(312.386324, 116.392042)"><g><path d="M 45.484375 -2.71875 C 45.484375 -2.132812 45.320312 -1.695312 45 -1.40625 C 44.6875 -1.113281 44.207031 -0.878906 43.5625 -0.703125 C 42.632812 -0.410156 41.003906 -0.09375 38.671875 0.25 C 36.335938 0.601562 33.625 0.78125 30.53125 0.78125 C 27.207031 0.78125 24 0.300781 20.90625 -0.65625 C 17.8125 -1.613281 15.039062 -3.171875 12.59375 -5.328125 C 10.144531 -7.492188 8.207031 -10.351562 6.78125 -13.90625 C 5.351562 -17.46875 4.640625 -21.84375 4.640625 -27.03125 L 4.640625 -38.0625 C 4.640625 -43.25 5.351562 -47.617188 6.78125 -51.171875 C 8.207031 -54.734375 10.144531 -57.578125 12.59375 -59.703125 C 15.039062 -61.835938 17.8125 -63.382812 20.90625 -64.34375 C 24 -65.300781 27.207031 -65.78125 30.53125 -65.78125 C 33.625 -65.78125 36.335938 -65.601562 38.671875 -65.25 C 41.003906 -64.90625 42.632812 -64.585938 43.5625 -64.296875 C 44.207031 -64.117188 44.6875 -63.914062 45 -63.6875 C 45.320312 -63.457031 45.484375 -63.019531 45.484375 -62.375 L 45.484375 -53.890625 C 45.484375 -52.722656 44.929688 -52.140625 43.828125 -52.140625 C 43.765625 -52.140625 43.71875 -52.140625 43.6875 -52.140625 C 43.664062 -52.140625 43.625 -52.140625 43.5625 -52.140625 C 41.9375 -52.253906 39.96875 -52.398438 37.65625 -52.578125 C 35.351562 -52.753906 33.007812 -52.84375 30.625 -52.84375 C 28.632812 -52.84375 26.804688 -52.414062 25.140625 -51.5625 C 23.484375 -50.71875 22.171875 -49.234375 21.203125 -47.109375 C 20.242188 -44.984375 19.765625 -41.96875 19.765625 -38.0625 L 19.765625 -27.03125 C 19.765625 -23.1875 20.242188 -20.179688 21.203125 -18.015625 C 22.171875 -15.859375 23.484375 -14.359375 25.140625 -13.515625 C 26.804688 -12.671875 28.632812 -12.25 30.625 -12.25 C 33.007812 -12.25 35.351562 -12.332031 37.65625 -12.5 C 39.96875 -12.675781 41.9375 -12.828125 43.5625 -12.953125 C 43.625 -12.953125 43.664062 -12.953125 43.6875 -12.953125 C 43.71875 -12.953125 43.765625 -12.953125 43.828125 -12.953125 C 44.929688 -12.953125 45.484375 -12.367188 45.484375 -11.203125 Z M 45.484375 -2.71875 "/></g></g></g></svg>